<mxfile host="app.diagrams.net" modified="2020-05-01T16:54:36.730Z" agent="5.0 (Windows NT 10.0; Win64; x64) AppleWebKit/537.36 (KHTML, like Gecko) Chrome/81.0.4044.129 Safari/537.36" etag="pFGXlv2IRqTK7uKHhLeg" version="13.0.4" type="github">
  <diagram id="dZbQ1vuXwUIqQ2woaK1S" name="Page-1">
    <mxGraphModel dx="794" dy="441" grid="1" gridSize="10" guides="1" tooltips="1" connect="1" arrows="1" fold="1" page="1" pageScale="1" pageWidth="850" pageHeight="1100" math="0" shadow="0">
      <root>
        <mxCell id="0" />
        <mxCell id="1" parent="0" />
        <mxCell id="l56wpMznvlge_y_zsVtQ-1" value="" style="shape=image;verticalLabelPosition=bottom;labelBackgroundColor=#ffffff;verticalAlign=top;aspect=fixed;imageAspect=0;image=data:image/png,iVBORw0KGgoAAAANSUhEUgAAAOwAAAIeCAYAAAC4FuMvAAAgAElEQVR4Ae19sZL0vI7dhM68ocvx5t7IwQRb+yZ21Kkf40a2J3Pq3JldNek+wa2NNvoewOENHbYLJAEeQqREqqWW1Dpf1f8PRZEAeIhDsltA6+vJf0SACFwGga/LWEpDiQAReJKwdAIicCEESNgLTRZNJQIkLH2ACFwIARL2QpNFU4kACUsfIAIXQoCEvdBk0VQiQMLSB4jAhRAgYS80WTSVCAwQ9vf5+Ho8f4kZESAChyFwMGH/PH++v58/fw4bPxUTgUshsI6wf36e39+P5+P76/n19fX8+v55Bs5J/eP3+ftI9bojh/apzfP5/PPz/fz++X3+aH+R8ZC9Wwj89QzFS8FIY4nAexBYT9gvJRaQTIhp9c9A3G/ZPquEFYpzh33PNFPLpyCwnrC6q9qOOSXm8/cRd04S9lP8heM4GAES9uAJoHoiMILA9oStHYmf+A2zlL+e4ajMI/HIXLEtERhJrwPStY64ob7yZVQ6NocvqL6+n4+HfOkUvxqWL6BCPb90ojsSgUUEBnbYRVmTL5c6erAJESACAwiQsANgsSkROBqBbQl79Gionwh8OAIk7IdPMIf3WQiQsJ81nxzNhyNAwn74BHN4n4XAAGHj89MY85tAcI93toAmxCFDFNWiTImm0pjlxcZsQASujcAgYb+f35hdsylh44Lw+JHEgpwocAy8jHE+BndqXUJgkLCP56/saEooJCyWJ/HFLpgi7IqS0VNJrXNylgZQJBaEvk6XCJD6l7KIFq1gAyLwFgTGCYspcEguLHvCWrhizOxRwocoJ59LV5ETI6Q0ZU/DGhM+2F7KTlcMoML6NVlEkJH0lmmhEiJQR2AFYZ/i8XGX9WTRndcTFurlM6pxVOTYRTIQZdZtLmuxPZZnbGAWUQkhr66DwDrC6i6Lnzc7yTJKWIs1liT39J/GIQeYUS+WSdjreCEt7UZgJWHTLou/NtHKyHEkGiXs4khQPpY9Ye2oDEfils3MIlqEnQ2OQWA9YdMuq59Hxfy8G0JGjiNRm7DpsVFrJ23hg/Kx7Alb+0mbls1YHz8E86drWviz/q0IDBD2rXZtq8wReVw4H/OMY8YeeyBAwvag+vuw/N2e5mxDBPZC4B6E3Qs9yiUCb0aAhH0z4FRHBF5BgIR9BT32JQJvRoCEfTPgVEcEXkGAhH0FPfYlAm9GYICw+6fXyTPaajTTHCghkYAv6ZqDiPc+B4FBwu6YXifPSjWuWMqH5rjyuevnuPhnjWSQsG9Irwv4ym5eSb2rYY9BEaHM9LoaTKz7DATGCauB/+Flc5BsjsTxYYEWx9uRXie4gqwc7tg4LkPb0M/pipGFTK/7DHflKFYQduf0utHAe09YSOUTstfensf0Ojr+VRFYR1jdZXdIr5MvnjB9bniHJWGv6ou0uwOBlYTdI70uHpeRrB32F8dnPEpL32KHtaMy0+u6cGWjUyKwnrBbp9fZ7zw1Pqu24Os+Ele+jMI0Or6kq4Uw60+EwABhT2T1qClI6tG+oT0f86yCjZ02R4CE7YGU6XU9KLHNGxC4B2HfACRVEIF3IEDCvgNl6iACGyFAwm4EJMUQgXcgQMK+A2XqIAIbITBA2JNm6ygQzNpRJPj3gxEYJOy+2TqPnz8JalkczpAyx8c5H+z7lxzaIGHflK2z5rkp9gnlSqCE1POlWJd0VBodERgnrMYR75CtkxPYp6l1wzHFFooYQx6ZtUOX/wQEVhB272wdgXUgH1ZnYbLD5nfMFjHFkBzArB0Fj3+vgsA6wuouu0O2jgJXvNKjiPltxBqTsAod/34wAisJu0O2zu8jv4Zyzx3WjsrM2vlgv/7Yoa0n7NbZOoGkjd2zB/7uHbbyZVSxg8OLvLCeL8XqmQW22RmBAcLubMk7xCOpV+njY55VsLHTZgiQsCNQMmtnBC223QGBexF2BwApkgi8EwES9p1oUxcReBEBEvZFANmdCLwTARL2nWhTFxF4EYFxwoasmGno4It27N9dviH+yo+N9K0g+yumBiKwHQLDhA0RSI/H8+vKHh/Ie4ZsoO0mkpLugcAgYTXtTf9GkMowwvyssgjYV4KHZ6EavPB4/jZ3vhi0r2+zk79ZxLe95W7VwkHC3sO7P3CUY4SV43BiTUFSqLcf8xZSKMNCJGMiXCIo3Mqwyj0NzkeZWG7ILRaHdPSd/ii5LDTxWJz1QzZPtoQlInBKBIYI2yRpCCuMR0zLjBGSwWdGKVffc5PIbG2XCNuS2wVveTLo6sJGROBECAwQNu9ORi74VYhI5vI4PN3hQnBu3kUFCL97KmHTThx15S+5bEFwIPbtsH+eP4+cdudE8JIInB6BfsIiscKw3FFS7n/LT8gkQgTCVb7YwWOvyEG5QUbsLwTMx1bAsSUXmrBIBD4VgW7CFsfhhEbY1YxVcQfGXbXc9dIu6QmLWTpIeCEvHql1IcAMmnD/+/mXf/3b82//7282R1KuX8cj8f8q7v95/uUfv57/+f/k/iaIBSJwMgS6Cftuu8sFIh+1a3b8y//9l+c//c9/CiQVokq5//qvz7//L//2+ff/I/avyWcdETgLAqclrL5N3XZZ28nr0ClphahS7r7+b//++R/+6/+29rgz1zWxlggch8B5CbsCEyWqdn31WuXwLxE4CwIfRdizgEo7iMBeCJCweyFLuURgBwRI2B1ApUgisBcCJOxeyFIuEdgBgQHCpkgneB6q9ujz1vBFbnh+WgmY0MY9f0NwBFPheqBim3shMEhY9zKsgFUMRng8cjbNphAysmlTOCns2ggMEja9DAufiabQQgt0wEimUNZUuq/nV2V3XoSPhF2EiA3ug8A4YSEzR2D6fcSQwyZhLY81xx7rEdqCIjSTp8A9HcGtv9zMMoqmvCACN0FgBWHjKy7CJgu7aZOwsKsKUTHWeB7jeNSWl+TxHxEgAhGBVYTVDBsk4Ahh+3ZYpsLRSYmAR2AdYS3DJn8bPEJYbwSviQAR6ENgJWGfz7BLwpdPvYT9j//9r43Ut2hwTo2LR2KmwvVNJFvdA4EBwm4DiGbRKDGZCrcNrpRyDwTeTliBVUnLVLh7OBlHuR0ChxBWSSvE1X9MhVMk+JcItBE4jLBtk8bu6LPcsV5sTQSuiQAJe815o9U3RYCEvenEc9jXRGCAsClUECKXdMgaCAFPefTWa39DHPF81g6PxK9BzN7XQmCQsAdk6yiejSQAElYB4t87IDBI2M5sHfg9Yd11i0CLlOEzBDAJOwQXG38mAuOEXcrWQZwgOSBm2khmjxytY4aPHqV1l5S/0+SAdBRvZO1oX1TLMhH4VARWEHYhW6f1citBMP2a/5SUc/DGEMVW1g4JO4cd730aAqsIO5utg8fdYofNhNVXVvbtsPNZOyTsp7kkxzOHwDrCzmXrIGGlbN8q606Zj8RzhvXeI2F7kWK7T0BgJWFnsnWMzPKTMPltdpLNY0dhIfI//uX51w1eYEXCfoIbcgy9CAwQtldkXztNAHg1a+fv/s3fhbfc9WllKyJwbQQOI6zApqR9JWvnn//TPz+FtPxHBO6AwKGEFYBfzdL5h3/3D0/5j/+IwB0QOJywdwCZYyQCWyFAwm6FJOUQgTcgQMK+AWSqIAJbIUDCboUk5RCBNyBAwr4BZKogAlshQMJuhSTlEIE3IEDCvgFkqiACWyFAwm6FJOUQgTcgQMK+AWSqIAJbIUDCboUk5RCBNyBAwr4BZKogAlshQMJuhSTlEIE3IEDCvgFkqiACWyFAwm6FJOUQgTcgQMK+AWSqIAJbIUDCboUk5RCBNyBAwr4BZKogAlshQMJuhSTlEIE3IDBA2PwL/OGXCu3nS99gJVUQASIQEBgk7OOpv8Bf/GwpwSQCROAtCKwmrP76/zP8uv/j+fiW10ImQsvvDusLsWAnLn7pP70lq1YX38Ojr5nUReLP8yfoAD3PWKcv3HoLYlRCBA5EYDVhbYcNb5X7ehppwrWSLL6HJ/yAuKsPY5Y66wjv7Pl95B8dV3BqdXqPf4nATRAYJKzuel9PfT9O3GF/nn8UME8sIaXssr5e2uNOnHbkTG54U4C0DYR3daqTf4nATRAYJGzeOQ0fJWSqkCOuvZJD6tL9X18fbrm2JjQW4nG51Fmrc914SQQ+FoHNCRt3wkyy8uic6wOiYdd0dQ7q30d8lyxW1+rwPstE4FMR2J6waedc9aVT7UXPHV9OwcfgT50njosIBAQGCEvEiAAROBoBEvboGaB+IjCAAAk7ABabEoGjESBhj54B6icCAwiQsANgsSkROBoBEvboGaD+j0JgEoew8ejGCRuik6bPRje2a0dx7886isEeKUps7TMoF6CyI0BPeXb+BTHge+pqyQ42YPRbq+HO9VU7mnMhse2ZG9W+L9o7TFgx4vF45NDEFw14f3chbA7WkPEUkVlbG1QEh6xPVhDSr+V6/5DiYvb4SeGk/R23bSmY6WAL/LZVsyjtz8/z8aNBt95vMjFNDhJ5pq+1X1EYJKwarX+jxkBizbsLGTRxMNWdJQwKsnvChOQYZZ2nMmMn3td7Vbndgy9tn8s6qutpZw3FYJG8GIhJIgMXBH/dZ3a5csdwT8UQdkN0GNRdYJ7aWxz3guOBgRPba3LjoGP8eOpr/Wrt5+wI/WW+ShtNntpWk7u1HUFHjpmf2IB4q1361/XV6jV/xwgr4CbWFCSFeo0d/iNGKsNCnH/K6JH6L8juQatxYCgTyy25SY4AaVFW1SNVSVjbYb1dLT2NJAYkZTmkKWEVQ203anMM/1QMYddG/NCBirGlBScdeYNumKdgk5ODdhbjrMgNolx/c+5Kez16V+0QxU5WrCox3RMP8Y/oT+WiMbXLLarJ56t9FdAVf4cI2yTpM5PAJkdIpjmxSJzKBGRQYLdAkvpyTW734MVWnYT5rKOm/V/uGJ0csXDmZI/hofbhWLRu6a/HzF2bjs769jya0cUOWczPzFxubgec1sSy4+wI2sud3mE9JTBO6vSUgHdHygOEdY4eJi4f/6IT5FXGJs9b4weKDoz3pGzEyqtbU27SI/erRDM78uJiVVJA3bg7FY3yRdSTxx9FiO5pHRK5Zv+izc62pq2unely9aOE1VGbvFxRENvuO32t+iU75D5il9VWdlj4kqylr1W/ZIfqLdq1xqiN3d+ir7s3ctlPWCRW0ABHMbmW+9/feQJlQM55Yzf3hQbKDTLi5wQB15/UrH9NbrjZ878+wgZSLOipZQ1N6goc1q60zuams2A7KSeHd+0L50H8FT7XPld3EgVOXM9QHrUj+laNrGKLES8blv2uuP8iHr8P8EGRlTeOctHMG5WaJHzI/uv6WqPxQjdhi0lOegS4/HkMHATv+11y4gyxX9gVkfDiSNYXjsppQvI9ALFr/KKv3AVDt4ld0TG8njBmtSvNSK0OTcH7LSfE9tOycwhnq8hXuVnX9/PxSPWufTGXBWFhLtIYVe7UpjARDaIgdivs8HOvC0/ViB3tSIuN+gBigZiX5FUjSyyxr7ZY87ebsGuEv9KncCr3WeYVuVftWzjIVQfxQXbjSUrmJu+m+w7ytISNR9LKl0P74nFe6W6XPK+hN7CsmAs5/VRObDvBcF7C7jRgiiUCV0aAhL3y7NH22yFAwt5uyjngKyNAwl559mj77RAgYW835RzwlREYIGx6rgQRJTpwffa371fb5XMtiygKz+zGvqVbfERSfAuoo+z82+q7ws5Ojcc2a433WKs+VvsgYSWSyQcqCJEez4ek3VnGzh54RT1bqJgSdj4wYWg0hzuwG8uQ8SsaHz7eFTZfuMsgYR/P3yIyJoUkPn5DYHYgrEygRgJBVk7YhZXRXkYXgA3CosOEciXtrIiOgsiboFcc3D3vTTJ/NFMDThV6mgjRLzoetN/31agqtDO9xEsjaORvFOVssXqMHIKEhUKOnDJcf7SvhU1hF4T91dqHU4JgBYt26m9Y6XgLzMHmQu7YyQhhvmt5nLBFnKiEEMfJKyOTEpyFM+jKL8SDCfcT2wyJk35ALCUR6pCyOXl03uCzoV6dI8opQ8XUNrC7JQdI0Byz9Y0ZJkEX2okLVk9Z+tb01lL9WlFhc9golmkuzF4bR1oIUrti8S3kuvHWbHbt70q8teNeQdg4KUaENInovFK23QOcQV9+VZKl1/TeHbaSZOwce/RIbO1th8njm4xFHNKPWcDC+h6S+ja4WGlsbXL+0ga3+Ci8qN8TE+y1sbr2OL+W9C+yXTu718LKt1f7+LcLgVWE1UmxyU25ioHE6Gh+cnQSYeWNc76UEiet1hMW7VR9s07u7Nb++ncWWddXsSocW9oYAeG00ahf0iv37Uu4uR22g5imy41jlLAmx4Pl5PrbvJ5HYB1hLYtBj5mw6yJhpWxOooSTv+Ck8/bBXe0PVVJEB8BycxcROT7P0u1Kc3LgM5qzJF5KXxifOHpYHECmOLNbs0LfVn0Y44Je/WgSf1qngi/oj7Bphg/iCti49rOEbY23ZrOTW8WQlU0EVhI2fjmRU+uAsEZmSYnL+bHmuGJKQeSmbe4GOhbcQgfAMhI2nQDiMf3x/IF0NJUkZAn3/fHVybF2YYdsEOPxk7/I0gULbdOThu6y2qZVn2ywjxmJIIUtsAJYPdQVC1tzTPCFHNqLJygBTOxU2dKuNt6Gzd4OxZ9/+xAYIGyfQLZaRqDYreAI26pflsgWd0GAhD1ipmVX0t1V/uJuVas/wkbqPCUCJOwpp4VGEYE6AiRsHRfWEoFTIkDCnnJaaBQRqCNAwtZxYS0ROCUCA4SNz+jyc9U8Hn2MEL47CY8m8vPZ3GptKem1L2OS7BV6xM4yYMLZ5B5luLvvv0R7sPx+S/o1XsXO/hGdquUgYY/I1mk8f10B45Sw8wETK1Rs2wWdH8tDWtwYh/quaLzazhW6bthlkLCd2ToaCBAmr5490491g7DoGDN6dPeXDBP7nd6gXBw5xwSHRytJpmWe6Dh8EIA+hikGgfLSKaBmlwVHQNCFtLMThGbuBKU5LjnZpu9Sy+OCx0JFto7YgDZhO5VdmZuKnhyp5dq3xvL98zQMIdqpanOB0ZYns2JyPuZinLAupldD4uyhP064lF3Gh/f1YhKT05bHVnckVhL16An61QminFK2231a9ko9GG5jRTdwCQbhVkWefqQI4waZJkr6tMaI9dDX7KnZAIEZpkMKFduCSNSfFiojrJvL6lgKuTECzvrXbHbtCxt5MUFgBWEhDBEm15wG6nwYmjhpSZiJPZWK3h32BFk6PkYZsZgL7ytCJ+EtB9gfy7az5ROCkcLbMEdYXQA8MTvqbb5lxsQeJSPaiffmbAZ9FQdgFSCwirA6QUhAm0CcMCyjU4ABfTus7pJFx/pOBHrQPunpryeB8g17p/3ADleM40n2OnmGkfRBJ8cy9mmUl+wpbDgJYZs24xgdlrycIrCOsBbgn4lkzogTgOUqYaYGTWte2GEL/Z1HYljtzclEDnwWm9pY1ujHBH/CMIykOZLUl9UGtN+XF+wxG0YJW3zkAcxQfzoR6KZajCVglT+fy5jz7p/9xRBzcq2ehSoCKwk7k62DE4DlIwibHOsdWTpxV0tHVPVkN/4mYW0BLDOcCsI7WYU+Zu9UnfsTKwcI+4nD55iIwLUQIGGvNV+09uYIkLA3dwAO/1oIkLDXmi9ae3MESNibOwCHfy0ESNhrzRetvTkCJOzNHYDDvxYCJOy15ovW3hwBEvbmDsDhXwsBEvZa80Vrb44ACXtzB+Dwr4UACXut+aK1N0eAhL25A3D410KAhL3WfNHamyNAwt7cATj8ayFAwl5rvmjtzREgYW/uABz+tRAgYa81X7T25giQsDd3AA7/WgiQsNeaL1p7cwRI2Js7AId/LQQGCete/bDwU5vXgoLWEoHzIzBA2EhW/OX+8FOb+hu6zbG612E027VuvNq/JZf1ROB6CPQTVn7sekJOIFPld3O/f37rL5x6/D7lN3r194J/Bbfe/uGHseGFUdfDnBYTgdUIdBM27Kb6A9mgzn4cu0o4edcakFr6STt7qVJ8T4/9MjwsCKIv7uauP+hmkQjcDYFjCAvEtNc89BL+bjPE8RIBQKCbsIFYSLQgBHa/XsK5diQszAaLRGABgX7Cpve/4Km4/NIJX1oFL1HqPRK3XsLk+y8MiLeJwCcjMEBYgSESMX5ZBO8xTQgFAoeXMpdvO7d6YXvYYd2bvEf680unT/ZHjm0BgUHCLkjrue2PxD192IYIEIGAAAlLRyACF0Lg/YS9EDg0lQicDQES9mwzQnuIwAwCJOwMOLxFBM6GAAl7thmhPURgBoEBws4/0jEdEnO8RRZPkPP9/JHoxtP/S9hMAkvkKdZ3iJkOz6+3wqYDD9GLiRqxS6edHfLZ5BgEBgn7eIZAfXki+/iqOETvICBCqtElxCg/Hs8vjNRotD2+Wojw/fz+9guM1D+ej8f7kxXahD2XncfP3bUsWE3YMqRQAyEez198zloNkhCyaqbOV4OQ0dF/i+inuEhk/mbS6y4WAjq0QaE72RWCOqJubRaTE8AeSEyoyq3Ob7JXdtAsWAwO19UEicK+aRCKJklokIqJnemX7S0DV7LJA3ZWsAry1RA/1qyEpR0RWE1Y22HFgcDJizS54l4kapzvTLbq2MAZzNmlIdSbHtGhTpR2/nBZ6HZa5J4eX1Emlltynah42Vpg4o5rY0C9hX2ITUVBT78gT09AYk/tBNRpJ5qAui1MVOT40wR2YnkvBAYJCzuRkqSYUJfX6u7JCt2TMmcOLqNGEsGOa7LkPuwGUq6l60VRYP8SYVtyqzOhRIBTAIzdxgN1tuAkeTYekC/9bGxqL8oIcCdMfx/FR5SavBhaGklds8nq0sI30R1BDDZNPx+D4SzuhsAgYXUFB3ucAxWO6O5lJ5rbYePuYM4SyJj1RqfK/bNMsEmKTndBfLwnZSN83jWacp2aeJkJq3qwvxHB61USIvFUPi5UHf1QXxy+Lo4qUP522tnSHUSkBVIXbBTP8u4InI+w6Cxh+O64KPe/5YuTn2f4AjkQLhPaEEMnl0qUG2TE/uLoVd9ryTUFWAAiWIJEtullwoK9fiEyohbjjYvedBfstLOBVSa8yMmLGyLB8r4IHETY/Lij+JImHcU8gcQpc7upM4b7fpcsHFhAjP3Czo2EF+e0vuWXP1W5QY53ViRCGhsMYhVhW/a6cRlhE3ZxLI/nj338QAfqtLOhW8ZhiwAuIqiC5V0RGCDsrnYcJtzIFCzIR+2mQY4wzXa8QQR2QOD2hA1HTNxhYWes4f378LtrrRXriMA+CJCw++BKqURgFwRI2F1gpVAisA8CJOw+uFIqEdgFARJ2F1gplAjsgwAJuw+ulEoEdkGAhN0FVgolAvsgQMLugyulEoFdECBhd4GVQonAPgiQsPvgSqlEYBcESNhdYKVQIrAPAiTsPrhSKhHYBQESdhdYKZQI7IMACbsPrpRKBHZBgITdBVYKJQL7IEDC7oMrpRKBXRAgYXeBlUKJwD4IkLD74EqpRGAXBEjYXWClUCKwDwIk7D64UioR2AWBAcLCrw7KbyDpz4zuYBb+EuDW4veUvbWtlEcEPAKDhC1/a9d+8tJLffF6T1LtKfvFYbM7EVhEYDVh8w9zxx/61t/D1bfbCTHs9371lwjdT4QieXJ79yIn/N1g2NVze3ih1mLbUnZVRnh/zPvfNrc4U2xABJ7P52rC2o9Ku3e6BFSFmEpS/HHwFmGl3t4pG4/eYfcu6uN7a2r1ptNktNo62TUb6RZE4MQIDBIWXs6kzh5IBb8IL4PFnS795q8Rze2Sod6R3nZeV2+vqfD1SWeQpWDr4uDaomw7AaCN2p9/icAJERgkbP4M68cSj5fxvpFi2ii/EwdeAOXb67X+NTGJhL+V11D0ttV2+tdks0AELoDAZoSVsdqv4rujbMYB3+3ijqe287r6xWNuku502pFdd9rQrC0728gSETgvAi8TVnYqO1rqMTntnlYPbzrL7csvgIRgsX35IqfcvnyUVNQnvUWdLQDx8+yibLPRvS3vvHNHy26IwABhb4gOh0wEToYACXuyCaE5RGAOARJ2Dh3eIwInQ4CEPdmE0BwiMIcACTuHDu8RgZMhQMKebEJoDhGYQ2CYsOHxCzwymRM+dy8/xuEbzedw4j0igAgMEDYGHTx+fopoJRTWXZbQRSP97/Nhz2/lGegaAq/t120xGxKBUyAwQNhkbxE5tHIMBWFVBmb9pAycEL2kARWQQRNseDwf33Lv+/kd/qZ2Rn6Vy79E4HMQOIawKYVNoo9Kfs3slLhQJCLnvjP9PmeuOBIiMJJel9BC4rwMYDxmfxnzpsTLn3UhNHFiw7Tfy6ZRABE4IQIH7bCIhJBWP7c64snRWcmMJMVyEOX6oXiWicAHIXAIYSVIX3kYclwtI8cRDwmLn3tJ2A9yQQ5lBIEBwqbja0r2ls+flpRuO2Sv6lKWkRezfEIltPuWL5d+nn9ExYSwUpWyhlBYrzlsRwQugsAAYS8yIppJBD4YARL2gyeXQ/s8BEjYz5tTjuiDESBhP3hyObTPQ4CE/bw55Yg+GAES9oMnl0P7PASGCItRR8VvAA/jIo9r2j+ZOixusUN6PISPfCqPhhbFLDToy2Ta35b+eTqTLQvg8nZAoJ+w4uDq8FJ+iXB7ENYFXRQTLPrkOa5GVNWf5RZdhi6i4/dlMu1sy9A87W/L4yc8OZcfwX3zIj00gZdp3E/YYkhxom0uins9FzB5YafTzBsXL/z4febdIu3IoX0KoEiBFt8/v8+f2YydpK8VLVWV+ScFaDjbREYIHgHy65CdHK0u/77JlqB0aZ7eaEsXNiVSvJoisI6wL4OfHEXsEVmWtSO7ZMrgKerdu3I04skIK6v40g4rhHfyVY4bj0RN5SguzSiKfTWPN0RW6YlDcXVytLr8q2Pf2RbFVsdYGpGu9rclL7iVBa5qEyvnEFuGhbQAACAASURBVFhB2DlizKnCe+ooibDgVAVZoN7eludIYe27CJve+yNyUQ6WcRFw9eJ8xlGMc9ahufZaXf6FseuOj/2w/Iots3ioRe+yRfSJLpJWkV/7d5iw4rSvfeGkkzd3xNXjaD76bkZY3WXxlzO2IomTU58UIMmOtvTN03tsURyKBU8r+XcIgQHCxiPc62QV+8BRnJPbjin1dlSGIzH2DWVdQOZ2ftAX1KfPobaD430pQ2KDtYk2bLrD7mLLyDzhuNPpQz6f25jx/gpcfh/5RMIddoiYrcb9hLUvW/JPtuTPeaNHHXCEOcJ+uy980ijC58f0xc/jkT5vpuNj+ELIWKXDBn2hKjp1dkzI9vmCd/4424odojgSR2eOX0ZFfOLCJvUem51tac1TlTA725IWVMVlm8Ve5/Sef/sJ+258HFnerX4TfWcaw5ls2QTcewohYXecd3v95o46ekWfyZZem9luisB5CTu1lTVE4PYIkLC3dwECcCUESNgrzRZtvT0CJOztXYAAXAkBEvZKs0Vbb4/AEGHlOeQ2z9Tcc0t7UL/ffORnt+k1IPupomQisBsC/YT98/PcLlWqfGDfF0b3AgbyDNLSAWPQxCS24gXx7EoE3oVAP2HRopcfwpeELeOENbopxhrXd8YUqRSinVJMcorLjScArYtGW7hjGkO+JnlxWlk+PwJDhM1HYh9uNzrQkrC2w4adEDJi5Bq2QmkXLn8f0wSEWl0yKxM0VoRFAOSOWs/2ROAoBIYIm40Uwr1CWumfPw9X358jylpxsYnYRWxqrS4Z7AlrO3oeEEtE4BIIrCSsy1wZHmq5w1p3IR18ATUhmjWMhbBT2mfT+Tok95Jcp4aXROA0CPQTdtNUqT7Cli/KqmNWi5Gd1IXdVz/Xvno6qNvBWiLwDgT6CdtKlQpkGD0edxIWU+ZSOp38jlTcWdOROn0WrdUhgHg/77b80gkxYvn8CAwQ9vyDoYVE4NMRIGE/fYY5vo9CgIT9qOnkYD4dARL202eY4/soBEjYj5pODubTESBhP32GOb7dEXjnc/3DCJvDHPVnSuu4hnYQTFFvVakNUVKjj5sqco6scoEke5qyGucNjer1iQ1VVkVV7WjOhTwazH5W7VvVsq7yGMJ2Zf7Is9qvZ98LpqaDF+Aej8fTwh6nTU5fIyv3/iHPr+G8GYhCCB1seLavgS6baegTNOObk4AckYhEnunbp3y51TGERbtwwFiv5aX72q74q4EZ+jfeDCT+1YZ5ZcSgCiN40AuZQ3IN8c/qW/GdPhAXDT9+XpWr6hf/ZvtC08Ie+LFvh48dz2rtLTY77whmhpOj9SYvVzy/a78X7fpbv1E7gh6Zt9JGk/dOO1pjUhvwVSpQF4qur7+99vowwuajQzkxk4GsGbg4ZmJUQVKot5VR5Gf2hbflhUupB/IVdqFNKBPLLblJkDig/hiA/s0RWNKoXGxmXxoGHxnMsQv7Y0SX/nB60A1jDibhmGCwJk/rKnINry3sED0VW95pR9M3J3a5RTXkq+jiveDXiufg38MIm+2crqb5Xn3yivuViyZJgQTmAEIy2DmlHIgzmZyY8GBt1TmRpL5ck1uxt1rl9btrs7+zvo1J0u7kZKdVB6zjsrkd7iVex9khuDjfdBjVFpY8l65vvvFS6QSEXcj88SAtDleAyk4WCZY/D0XHzSujOZyX6/UiGfGelE1fXlWbcpMeuW/kT/2LHRZ1SB93bfI760cJq3CYnlxRz6jayA6xs8AB8CrqO/WZ/a79Ih5Jb9HOyTDZio37W/R199ZeHkPYkcwfB9LiQJFYoXE8DtoJUO5/y9vY05vxRL5L0YvdylS/Ioc2yIj9ZdJMNhrXkottZsuy8OSFpklYODXEHaG+ExbOM8FouiCoaROndPOR76O9cdGsnVTadsR5KkipRgTz8juUQvVedsz5ZqEzL/pm5lxfa/Ra4RjCBifLu6BNUnBy3aWmO6U5gPtCAiEoHCLdEKfSz7SFU+N9v0sWkyMNwR4kvDi/9YUvg5KT5Xs6LrR2ruwcwtmTiYLZS1u+yKth2152eBz1o0nDjPYCti0e5pt+0XA4RDPBR5bsb41rof4gwi5YdaHb5QLhSPbiOJCUL4pi9w0QwMc6MjfVk9UGeuZEkLBz6PTck5UWd9gtZ7G6ivcYxTabI1DMhSzM8HFlc2VtgSRsGxveIQKnQ4CEPd2U0CAi0EaAhG1jwztE4HQIkLCnmxIaRATaCJCwbWx4hwicDoEVhE3Pml76NlRk5G/ZwnNS+aZVgxkUpuKbOa3c5688npno30fVkNRgV/oWGp8JDgnZqXHVtjfO2U7DOrXYYcKG544vp60hYdvPLt/zrCsuQH1pfGIrvEpk76kV59eFUcqwyE1Vv9+21svR8Hnl1E7WvILAGGE1pE3/rtashI1OptFA5Q7iiBxWbk13g93QregWbFBrb9E0lagjJ8cPLe4mlX7SsKbL6lMIJEbK1NrP2RaMEczq+g+3zWFnc+BB5PXLCAwQVgiUjrGbEVbsd8S0ISmpU4U4haW7RaKHzaflLJX2euQNR3DduVSfk5OrY5C+b673w9+Krk1tEyUV+8I4DJPConyxo235SOwWkoqt2SCWXkGgm7DFqvkOwvpJd9dmT2d9OMpr8nrNfidHQe0mBXz+3ty2xqJ2DtsEKbf7N7BUTPl3PQLdhM2raQ7azwH1owbg7tnYYf2ku+vNSeHk+xEtHztbR9/l+qXFRO6XHxdK6460TS0pxrCApfbh33EEuglbiK7tUEWDpYsOwhZpY9MjoRG2aCdyt00vK0cCR3G84Rx0O9uivjmyZjPebNtcKpnDI9vI0qsIvE5YmZzGlyFt43oI63Ze5wSZFNumU8kXYH0EgdHtZZssjJhYcCbbMN3Q2YVzAyixuAEC6wi7geIeEZz4HpTO14aPdfabk1MTtvbN6H5QUPImCLjTxiYyKcQQODdhzUwWiAAREARIWPoBEbgQAiTshSaLphIBEpY+QAQuhAAJe6HJoqlEgISlDxCBCyFwMGFjZNJciGMIu4M43WVsk8xKH3muK4EIITA/BCXknNxluce2GMeh397p8+5ODPtVnKZlDOOM4bXDATInGMWhhA3xp83c2ug0fXmqiKT0k1/2dxkkKYTxIa+h1CQA7Hba8loc+gdUJ+wnYZiweMPrIPtRX9fyOMJqPLL+bdk//CBeHPzx/PVy03VYJISwKDeUK7m2LZtq9S0ZqCeoTa+cqLUXG0Mool9snL1ev8iCEEZbkGo6Ul89bXx9wdsCTO4AhhW9QbYa4efBdMwUWnaH+lYyhZu/OSxFtZM1Y82pbh1EWIkT7sytHQY2OVuRFCAv3IokaBJWj8ohlW26C2cHz9lKxZFK7KzJcPbbblZpvyZfd+JNqK+iI/Ao1OvHgbiDF2Mx7BTLqGWCISpHvZYOKP2ni8+RWOYj8dQuHM5Zy4cQ1pxWUFlagQtH6IExO1mNnLU6v9oW9vWolDbOTpPRWW92tTBxcrxZ2RE7fo3j91EkOJitJrQTwzB9eQHTBSeISTtcuRCYgvmCG6vZ11m/iGU0sLqYzBt2/N1DCFs4lx6p9AjlMXGT5G9Pr7Oz6WJgE54czHYZ/WLK6cD2Kl/qZjNnWjI66xedzMlRu8JfXPSwHZbhOO7H569jQnp5AsI2ZmtLrxiVCFv7QvFwLBN4No4CzHNfHELYAhKc9OJGunBOV2tS1gFhLQVMj3/wLlqUi2Vw7FLuwlVTxtSesOu49oXz1DBx7QtrsL2UlxaiQpbY51MKpzZ/wQ/Ama0tvcWResXRs7Avpk/GnXpq1xCWczm8BaDnvTgXYWWi7DNPdCTc1WxyrE0NWJzUONm4ypuzoVNgeXPCJhvSl0mPB37plL9AMbtkSEgEW3Ty0TM6L44dsMJXYc6MS/RFbB/Pnx/37lUjXNQRdkQ4AWVb63rlvtmICwiaPFeesTvvzvBlmWuf7ZvH0mycs+Vk944n7MkAoTlE4MwIkLBnnh3aRgQcAiSsA4SXRODMCJCwZ54d2kYEHAIkrAOEl0TgzAiQsGeeHdpGBBwCJKwDhJdE4MwIkLBnnh3aRgQcAiSsA4SXRODMCAwQFqJaJGpHw9+2HJ2LWBkXXYlyqtn6sp5+y0JE0R5Y9ZswaRlsSjHcZ4v2qdr2xvmagHWyikHC5pjcXcbx8sQgYd2rPsBgCW+DSDu4s2UxLnB9CfiN9+JsaY7KGk7ifq9trRdYa2qfDuOufw8jbI4J/XparG9B2OgoGu+qPxJR7Wezp4TFvhDXGtrJPQhIDzpd8rO0K2yBAPRae4mXTbHCP3/MmFhwctzdZ9xRwB5tUNMj95w8wSPskrX2c3ZVZKlq/XuobSGeOeNi41Tjbvp3kLAaMO5JMIieOBdsceIYk5Q3l7MZNLT6mXolrFQ4YlbbJAIckHiuCw/AYBaGgox1J7vysTMTApUfaZvZERagnBzhFyprd7PCAGERmXTc020Pb/WUbeV3CwBOUnLY4jNWq5/p7CAs6pB+7tpW8s56W2xEltjnGejkqKldpIDPvpvbFQwRvKakPd62ymLbwFHxvMvflYSFvNIVSJnz+b6VSYnOEz87N/uZnOsQVk2eP3bmHcbG7jBq1S8uJMmAop0aBffkN5+WjvktG1r1hc7KIif3i4Va7HHjdqbe5nIlYesrczdqAj4kRFu/xqTYFw6tfiagg7Au19M7gjlZ0U7kJidyNi45n5dvphaF+Jm72Jydns3sGk7ifqNt6fe0JmQVrBweBXw3uugmrDgMJpObcwUSVVbhBRBLeak/TEpx35TJvKEdXm8PYd1xC3RGv8jJ3FnX68nSgl3VEVs4vcmuIZvU1r1sm/nII3Oxyla1+UP+dhP2Q8YbhsHJv95s2inreqZvavEtCcvj1aY+tL8wt6Pvr/C8Gu5J2PPOBy0jArMIkLCz8PAmETgXAiTsueaD1hCBWQRI2Fl4eJMInAsBEvZc80FriMAsAiTsLDy8SQTOhcBBhI2RQxaIATGzHh6JJBrLvU2yKzI1ECLEYYSH9DunC/rBbHQ9jkmf4vrz6U48+1ScqlXA8aR5wS2gDiTsElmio/Tlk+LwpN8Hvow4DHEtJohPu9wm7AfiKc92NYJOyrVQ2TZUh905MWETJsMPzcWpD3ihM05hsPmAHNvgeDkDSv0xBopU7AkhuhrqCeGXOBaNqfZB+unaYqkbusOpRg3xMgo9jYu9sQxq4yI/SXJomHRk9YGEzY41GyMaJixnrSyDlQirjpY6aGhb4WB6bE7OFv2qEuxeOHaH3S15biy2o1Xa68eAwuF18E6OVhd/sU1FfhhrqNeTTty9p3PRiScqR92WlzwlRRhbOpLqx6OJ/jnbdf7S/IS+lfazWIrdhb04kPOVDyIsAhEdRRdhvBPKw2Cqg0EKIMhoErY2+RNjOitAn/QoiFnT49qbjdK5tiu59miV9FXnV0f1Dmn2uB8JsHoUCAuf2QX6rS6YWtGtYxhNflAbQJdUmY2d9WhfFUtbUFThuf+egLBArBpWbmJqTcq6TFidIJvk5FS2uyh5nA5sr7Klzoiw9EVFS15n/aKTOTlqo443XGMbLIPT+3H66yi3E09cWJy+YJdg5lblLkydLLOxs34JS7k/2dUN0PMVTkBYcQifJgdAuYmBO40iOFjYHWTV12MfLA4oF8vg0A0Fy9VNeVPb7BiniwcuKqIJiaCanXytLtpKP5Xp2tedXmyrOe/U5iqeaCfqth1a5MzMsw3CFVq2m1xpD7a79m3Cxo8+VyKrjPQQwvqV1RZeAdsmNU4C7mrm3NbGTW64RAdL+bOm4GjCJnvCDg1f8nQ7WQMTgwHub/JiZxHciWciTZgv0F3sYAWRzej5gsPGFpu0sEb/WIGl2LL0+XneskPuHkLYQ0ZKpUTgAxAgYT9gEjmE+yBAwt5nrjnSD0CAhP2ASeQQ7oMACXufueZIPwABEvYDJpFDuA8CJOx95poj/QAESNgPmEQO4T4IkLD3mWuO9AMQGCQsRNLMRhutRMZFtYxLqUTlSDSLhuipwJf1qKD5vxLlo9E0ZwuBC7Z5XOaH85a7VczeNF9vGeCLSgYIW087e1F/2f3liUHCuldygCYJb4NoRbizYVHGokqkDPHMUy1vwNaUxkW3/4cB3mjbzMumNT3ShnHTQj9hXyZTiXART4yObat+dJS4Q+Xg/Wo/E62Exb4+oF3uQRB6GFcluduN12JYa+0tLhXkmk1SELvq9+KOUrlX0yOitrLLySnMTReH2TY3zpqhN6rrJ6w5pR7zMomG8RJnUZKGhJQPfqFzxfliVUzXAxhKGAWjnV7oHBTNEFYXxSNsy0dit4jN2FsC99lXY4SFGRRgV38um5A/ycJJSQ5b6Gj1sznSHVYq3E6qbVBHaPbz/LZd/X0J0l2k2NMuj4PiA1kwMN1wd2mXz78OUp5Kcr34jsmWObULVONOJTP2Yq9PL68mbJF7OYiSTaTvV5mU6NhxN2/2MznnI+zSwhZ3FLebyHgcFjb2zvpFUjg5BiEUDrMt2VCMocNeMP1ji/2EFcDsi5P4GbG6MPZAVciCDo1JsS8cWv1MRAdhXX5nkxhFO5FbOQXgcV5sKHaLiFFxQjA7faGCp8PCCPuyXUm3k+8tytdvtG3uZdPd9mbLP7HUT1g4KoUvgpStgUSVHWIBrbhz6ufh1B8mpbivurwNky9yeggrDgj2gk4xORMjluOXXgckSO9lVyC84h7/9i0qMKFvsg3twnkBS25XHCLsp6DDyb/eTNop63qmb2rxLQnrj8GbIkph2yPgdvTtFVxH4j0Je535oaVEoECAhC3g4AURODcCJOy554fWEYECARK2gIMXRODcCJCw554fWkcECgRI2AIOXhCBcyNwIGFj9JAGJrRe9RfC4yCmdhnOJLfSR4MxQhxGiEt+IYFh2ZBdWsRwwZUBDwsW1Z9Pd+K5IPuMt/fEcq/xHkTYSrjbZITRUfrzNlWA9PvAFxDL8OR5pEZ9SdlCRXXsr/1tE/YD8ZzJvX0NxX17H0PYkQfhI20DVkLYD3+hs40TQiylLpA4hx0qt2OgSCXntwj1hPDLwucG8IR31ajucKrRiyLWulDSvgjzX7Hd+YUtNrX24TQluDi8VKuTpdVn/HsMYQ1Ada6Zo+kwmMnBiiB5icuPk2UZIChXyrXcU5ix4HjgkHKUx1hXaGrEiX4KpwnUiXHLFf1f6UhfODwqcbLwVijj/Yr8YFuoV+wFt9qYOvFEA1C3pTmKnJIwXZjO2Q4fewrCurlsYZmPxKVdOJSzlY8jrK66KeNl1vlhYpYBVAerv6muSVjQYZO/rKzeonDYmEQQxtdZbzaK9Oqu5BIYwIrshPBbVi29fKFzQm66mACkpyqegrB1p0w4OWdbRi8TVuUiAY0MKBfLuPOBsq7dQNu35HXWm40ir0JYuV9d4LAt6sIyjA9xEVX+Og6nE8+Wbh2DnE5gkVZ98UtHPWlVxtWw3ceDm+2u/RKWcYywuGvFSf8eQ1gB1b4wgSNjDSQ3AbUmZR04mKWS6bEPJgblYrnpuKWW2aumvKlttZ237WQRqypZxSAkjZT11NCyp6gX2yqEKT5axDYf8ULnudzb2ck99uYxhE2ksNVVV15xIPuco87hVt+iTQ08JEXcNXBlNzKgs2J5V8Ime8JnYfiSx+k3G2sknP0cDZjBS5Wbu1H6OBLn4fH8+fmu7NydeNriKEdx+VY5/iSMjMUWGFxEalNXq3PY2E5a+NAKLNHe6kJVM+b4usMIe/zQaQERuB4CJOz15owW3xgBEvbGk8+hXw8BEvZ6c0aLb4wACXvjyefQr4cACXu9OaPFN0aAhL3x5HPo10OAhL3enNHiGyNAwt548jn06yHQTViJMLHIpBRtYxEsW43bRbWMi61E5YitGqKnAl/Wo4Lm/0qUj2K2OVbzqmfvntUuNTrYh3P2pvlS/Wf+203YchDtbJGy3eDVyxODhG3bKIuPRkMOWtjfXMaiSqRssdM1EQvx1LUua+uGE7ffaFsKF6z9aIGmR64d9qf0W0fYl4mFMbWQxVHIjY6ica6/CfFip1dC2GwoYbEvxLKGdnIP8h+Dzp0TpIMjgk6zNyYjVBOr32FXgTcYlYpxJ67YvbdtFbswhnhq6X1qVhFWJnLClRHMZEJAgMnDiXK5mkF8q5/pVsJKhSNmtU2IIK8nr6MtmBAg9Z0J0qbSyQrWpY8YAIM1D4WKntDWyTJHrrTXjwJhkQNFkYhyXK+QEYLqocvbbLOx45FYKt24S4Puc7WCsEiKlUBJ1kYt6wQnJTlg8dmv1c/MQNsahEUd0s9dFwQAp2nV22IjssS+iZfX7QgkMuLbAHJhd7uCwZNfgZDaw21zYw+g1OoyWrcpDRPWHPcFiJoyKpMSnSfmszb7mS3nI6wQulh0zNZYiLtdZadzWNjYO+uXF5Ksf7LGJBsPs82NMZhTq0t23unPIGGFEBXnGkVMwK99CdOYFPvCodXP9HcQNnyezAntzR22aCdyE/GcjW1iyM46T1YzOxzf3ccMp8cI+6pdw4nbcRwFqfeyTQFx8kN1rU7b3+jvGGFrCcgC5AoSx51TH3ukRQAmpbgP3lLUT/T2ENYdUUGnzHsmRj4ayme9xyMld7v2TcIuHt8XvMzp2cyuQHjFvXdBcba+yTb52KSnExy/s+ZWl2OE/RBoOPnXm0g7ZV3P9E0tviVh/TF4U0QpbHsE3I6+vYLrSLwnYa8zP7SUCBQIkLAFHLwgAudGgIQ99/zQOiJQIEDCFnDwggicGwES9tzzQ+uIQIEACVvAwQsicG4EDiGsPAetxhJXsArhcRDTW2niqmJUkga+403VG+IwQmADRDxhwxOXY7hgDHzQoIKtzK0/n+7Ecysj3ixn3L/ebKBTdwhhSxtc5JHdjI5Sy420JtWC9PvAFxDLWOV5pEZ9SbkW3lnFpK+yTdhPxHOtf/VhuVer4wm79FB86f4EGZkIvtBZTjDK7RgoUsn5hcycIvyywHQAT8jAUt3hVKMX1WymQtn0Isx/xXbnF7bY1NpbmGglDt7JmRpwrprDCVvE4tawGQY0OVgRJC+Zb3GyTB/KlbI5eCXYvXDsjjjcljzUiXHLlfZ6pC8cHvFxsvBWKOP9ivzAoVCvHwvijjM9ZnfiiQagbstLFjklYcLYgOQYO2zi5myHj0oFYd1czmJZ2GpaT1s4mLDqDDP4DAOaZdbIWavzoYo2+TNmzd5yNpu8znqzUZRUd6XWxwj9BYu0qKhDt/S6HwkwO4vBdeJZvAnP/Y5W2uGmi0GhqH7Rsr2zfhFLJ6duxHlqDyVs3UEcOMOAZgdTZ0c9NoEoF8u484EpIqP3i7LmAtDS4+rNRtFfIazcrzo/tkWZWIbxIS6iyl/H4Xfi2dKtY5CdVI/GUbAlyiOuk3E1bO/FeAlLLyeZdto/BxJWHKE8IlVRchNWbVNUgoNZKpke++IOZMfBpR2okDtw4WzORJjaFhzUtW87WTyuT5xaTUPSSHlpfIVesa22EExt/ogXOitmBQZaed6/xxEWHUrxEfCMxNGBJqtv0UY74l90sJTTCiu7kQEnCsvNnQZ1LJRn5OWdeo8cW8AMXqrsd5G8gOAR+t4vdK5+fl6Y5iNuH0fYI0ZLnUTg4giQsBefQJp/LwRI2HvNN0d7cQRI2ItPIM2/FwIk7L3mm6O9OAIk7MUnkObfCwES9l7zzdFeHAES9uITSPPvhQAJe6/55mgvjsAQYSVKyCKPNOxtSwBchNC46EqUk8Sweltf1tNnGeLVDCfsE7V5q2Cbx2VzLeMCq5i9ab7GrX1/j37COtAEWIj428Zyp2NcKBK2ndEioXmb2+6NHXpxcj2lz4vc5jqGL/b/MMAbbZP514mRMiToa3rkNhhcV8oLhO0I3J/BJcfUQhZHQdjoKHFHz8H71X6mRwmLfX1Au9wD24POHROkxbZiXGZsKMQdBezR23vbNWOTmnCYbRGZIjkE45/Vvjv+7SdsCorXI7EuhKtAE2cBAbZboxO5XM2gp9XPjFDCSoUjZrVNIpNLeA6moS1p7JZZ49rrkTssJm5cEa8pIXXhgeZmYSiIfqdnK7tMfuNIfLhtYqDDf3JdonWbqyHChhX38fuMK2/e9YbRkkyd2i8N4CQlhy0++7X6mQEdhEUd0s9d20reWW+LjcgS+6oMFLtK0naRAgi1uV1ufAZhWpxkfqpDeQtmlcV2xl60/dPL3YQNDgYzaA60AqFm38qkBL3ps0yzn9lwVsJCHq7ZGgtx8SvJHO44LGzsnfWLC4mT48wKl0fZJnqLhVqs6bC3NoZPq1tN2CqovegI+PCFgnVrTIp94dDqZwI6COt+68k7ghGjaCdykxM5G5vEGHpxcvzMDevhxEE3s0uxcuPQ6unfd9oWdU3IKkZ12zsdwSfVdBM2fiasPNYJJKrsEAsoiQPmY3HqD5NS3AdPLurdMfNZkKxyrAo2uXrQKbczMWJZP4MOv9DZfu0iYlZ1wjmM3mSXjO80ts185MF5mYPt0+8NEPZzoODkX28u7ZR1PdM3tfiWhOXxalMf2l+YO23sr/C8Gu5J2PPOBy0jArMIkLCz8PAmETgXAiTsueaD1hCBWQRI2Fl4eJMInAsBEvZc80FriMAsAiTsLDy8SQTOhcBhhI1hb+6lTRVsQjuIqa00cVUxKkkD8vGmBl2EOIzwkP6FeGgU/MYy4jYc8LBgZ/35dCeeC7LPeHtPLPca7zGEdc/VBDgIZkpjjY7Sn7epEEm/T3wBcQzPe/z8AXy2XXDahP1APMUH1emkXAuVVZc60d+TEHYmtNGRexk7IewNXuhcwyU4Xg4fVX+MgSKVnN8UijkJvyxAHsATMrBUdzjV6EUzm6lQWF6EcVZsd+O3xabW3kIeW34WF3lbC0sLTnV1DGELR6ntroCRmxi40ygmByviEEkb0QAADLlJREFUiiVbJk6W7eYoV8qWTlYJdnf2agx080jakoc6k8wgo9Jej/SFwxfvYG05X4IFdVXkBw6Fet2lBbdaXHEnnjgbqNvykqekCGMDklfjmudsh49KBWHdXLawNJMLe632lIXDCBs+P/Tk1g6DqQ4GKW0go0nY2uSvnTLQJyIKZ6rpce3NRunc3JWmBIjN8w6rjupDMc0e9yMBVl+MuxPPYjFxv6OVdrjmAlfocxcOG7Oxs34ZS5cM4tSf7fIQwgromOhtk1BDx01MrUlZlx1MnR3l2wSiXCwjwUBwsHlpN9D2LXmd9WajyGsSFhYk1YttUReWYXyIi4jw11FsJ54t3ToGwU6PxsneLkwbtjcXIdd+CUu5v2ohSWN4959TEHYWNDcBywCBg1mKmx77wMlRLpabjrus2Vo05U1tsyMx7LxNJ1vKsUXSSFlltuwp6sW2mvNObf6MFzrHjz5XIqv41yGE7cutjQ6knxft84042SQP1qgiW1L80ilVhVUcVnYjAzorlncl7N45toAZX+gcPMDmW678gtZ7YkL3Orh8EGEPHjXVE4GLIkDCXnTiaPY9ESBh7znvHPVFESBhLzpxNPueCJCw95x3jvqiCJCwF504mn1PBEjYe847R31RBEjYi04czb4nAiTsPeedo74oAkOExdjPXUK6XMTROKaVKCeJZtEQPRX4sh4VNP9Xomw0UmsXvObVN++e2i6cqzfNUxOoE97oJyzGpobwv4X0rjWDfXmCkLDtLAxZeCBacY2ly33O+kJnwVgHL+Vq4nY9xXB50GtbxJDK2o8VaFrkWsmf1q+bsOLkuEvIKo3Xo8Dgbm1ZHAVho9PEHSoH71f7mXIlLPb1djoiB507J0gX4zJjQyHudpXF7x12VRbepj1i7d42VXDyfleid7+rbsKGwGk4rrwEpEyMrvIpjzJc4oS5XM0wNa1+Nm9KWKlwxKy2SU7oEp4ntmBCgNjg2uuROywmblxxwZkSUhceaG4WhkJFz1Z2mSLAe9Ee6bS3TWBPzUaru3Ghn7CBAPkzmWXPrAFPjte1TAmcsOQcxS7e6mc2dBAWdUg/d20LUWe97EhGOswGMZukIHaVpF0kSKf+lr3LdpUL2qI978DKjTlAWKsrsL3XxQBhS2AKhyhvLV6Zk/mWlcmJjhSPxM1+JueshIU8XLM1FppHUIeFjb2zvpifykIi94vFMNnVtEfud+pu2bpkk5cfTHI6k5m3/bOOsGGny58rh9GTSah92dGYHPviodXPDOggrMuX9U5izla0E7nJwZ2NTSdcSjY3m6UQP3PbTh2qfp7f1Y8gOMYVdiVdNbJmkyr27GpT0uywDbW1umzo7Ur9hA1k0SMxkDXUl8e9HhSFGPlYnPrD5BT3wZOLenfMLJPXyyNftsnVg05pkwkby/oZ9GNe6Lz4sSIjNSm9CSv8uIXzMbHnhhX9hP0gcOgE15lMO11dx+RdLb0lYf0xeFeEKXw9Am5HXy/oc3rek7CfM38cyc0QIGFvNuEc7rURIGGvPX+0/mYIkLA3m3AO99oIkLDXnj9afzMESNibTTiHe20EDiMsBkDMRd2EUDmI+FmGO0b/WFBGq++r0VohEqqSa5uCL0R/iPd4Wc/yiLduEcMTY5DM3Nys1Vt/Dp7mrTJf6isQP7NW9WH9xv24buoxhBUntomRiapFSsUJrOVI1oeitdIvR2IJUOudzkVFqYrwN9r9/e1tj/ofmBRQ9Dv5xVAe77qxtAn7gS+OTgv7uB/XsT2EsH7CZkk1/PC8JKy9TyXI0bzXx/MX5Rb3dNeM8bS2U0+W96RHFh+8l65lTKF6UU99YhZrqzYvBejr+NMYw+4vO6lfdJJ2tB0NknrItrLht2yCU4fosjBPlKmx2z14VnSHXVgN8TIKPY2Llu0OA/PdWvs5PJ2chhWL1YcQdii3dnigJWFtMRA5ekwVWFBucS8SNc790g4rO7nXF52/SVizAfXEeQpOB86IMbWTmWzZjONKRAknjEp7PeUUzp7yk+NC1SAyGoP6Kjps0bJTj+BVO/Uojvo3KtHQRMOzpdvyn6V/aXcXrnO222kQYs0r7Vt4BpMRJxzDYPkYwo7k1g4PNDrEZGf0cvAay+jk5gQ1VLNjmTOBnFpdsUgUemryF+pAl7QsV/6f55/UvVVv9km75o40dX61SvobxurQLZvcjxGYTSos/O3Es1hQ9DSUBKUdbtVHoJbtnfWLeDo5xdAHLg4ibGlhMdjyVrkT+nvV6zzxxW0PGF5jGZ2/k7Dq8OiINiaUjeVCT7RU+hsJ0k7bdL6WrM56s09UNwnbyOPF9qgPyzA+xEXU+es4epi3JB/bmb0t3ToOwU2PxlFw0LeIa8P25iLr2pt9aoezwctJpg3/OZ6wMgF2XKrY74CptHBVMPF4x8vBaywXDtVzJBYlolN2nPLLLjsOLu1AaGdvuWkzjj/aZUditSPtUuZTSIKePF7XXo+C3imNcIWtYFMx1qndVTxbuu2jicgpj8SFmtZFYSMuKlO7hvBUfU6+Vo/+PYawYrx9VstOHibcwI4TiyujAWVtasNFgOG+BwyvsVwQNk5csMG8W2WWesQ5cWW3FRdlY9npUandf2dkBVsCvvAFj2tv9olCJIEtPnOPdWBu+OLoMGW9eIovNU9NHZN/DGE7DGMTIkAEpgiQsFNMWEMETosACXvaqaFhRGCKAAk7xYQ1ROC0CJCwp50aGkYEpgiQsFNMWEMETovAMGHl62t77paGlR8jTB9a10cOjwXk8QM8Hyzay+MGeLZZ3Bu5CHJWPJsb0bFZ24RNBRPFOTxh2gqbQbvFhuljiU6bB3Wx+RSBAcLGSZlkHcjzPSPVND52qlJqRFZ+/iqLwNQJ6j2ntXPBDbF1eEb2cEH6U0EnqRFszpu10ibseW0+ycRuYsYAYZM+9wDeT6C/rltZEtYe3AfZmlGyRUaNaFdd+jdaVDzohhBEsd+CNTRYomaXBX7Au3UqMdJZREVuFZxkZxHMkIMbzG6ch8K+mROL6JO2NdtnZGRMIBCjsH3A5oruIF+B8uMu9PBiF8JixE8d4il5chQTEMA7ZTXTZWGHBQcwZxejoN5C6kSfOk5oAilyptuNCG1EmVhuyXWi4qVio39T7SMe6W0MqFfKZl/vKSeRV4/eLRmhXk9DYlPtNKS26t+GzThetN8WTOl/lY8uOJj3lTcnbEGE5jjixNd3spxpYkQSOcUEY6znPGHNwUUGksh2XpAl92EHsDAypzuKqmSroHxfrsmt4pOd3mwH/bW6NjZVBU+RYeNEwmoZwyavkGlTH+ZH1m5O2FVHYoUWHDNU4TWW0aFsdVYh+NctDIE0ultoJkomfNN2p7sgPt6TshEz7xRNuWiqlTNhVQ/2f5mwuJB42yuERd1ior+OZnfa3NItQuSeYAcnHIOEBUPgZcKG1d2+QJKJy45qWiYFmGC8hw4k9XiN5cJxMuFQVCijg4QKd1yU+z543cYC0pxuJZLpSI4uzlz1N+lfkwsqchGxkfLGWUCISRh/OtG4MRoxi/poz/QLwk6bW7rttCNyevwno3W30gBh1XnycUonTiZXj1haF4ncAh8nGCAvnKOXsHHVr63OthsVKjCrJo7JbE4LgY7FfjrF2xUcLOGAhBeHtB22/PIHMTK5QY7HqMQm9INVwMaENmG5WMxEVk1+xfamjHgSieN6PH+aj3XyyaVpcwM3GZPNAS4iMG8sRgQGCEvIlhAwMoWGMzu/CnIk0erN/u4tfzNDKagXARK2F6medkIQ3GFhZ6x1198rqt3bom5v+VvYSBljCJCwY3ixNRE4FAES9lD4qZwIjCFAwo7hxdZE4FAESNhD4adyIjCGAAk7hhdbE4FDERgmrDy6+IKIGLW+Va/3y7/x+Wd+ZumfFZat/ZU857Pndv4mr4nAByMwQNhIskl6XXoYPq2fQ60MDphrWbtHwtZQYd0dEBggbIKj9TC+VV9FsUHYIEPT68qdPETPhGecrRSvqiJWEoGPQuBAwuYQRztip8CDGG8Acb+hXkPf4k7PI/FH+SEH04nAgYRVAoKlbpe2o29XihfIYZEIfCgClyCsETdNgr/+0LnhsIjABIFLELZIs0tfcvFIPJlLVtwAgQHCxs+O+VGMpkQ16sPnztbjmmmf8Lm1dSROP9cySfGa1XGD2eMQb4fAAGFvhw0HTAROhwAJe7opoUFEoI0ACdvGhneIwOkQIGFPNyU0iAi0ESBh29jwDhE4HQIk7OmmhAYRgTYCJGwbG94hAqdDgIQ93ZTQICLQRoCEbWPDO0TgdAiQsKebEhpEBNoIkLBtbHiHCJwOARL2dFNCg4hAG4H/D/6ya4C6zewpAAAAAElFTkSuQmCC;" vertex="1" parent="1">
          <mxGeometry x="10" y="220" width="236" height="542" as="geometry" />
        </mxCell>
        <mxCell id="l56wpMznvlge_y_zsVtQ-2" value="Final - Q1&#xa;Create a flow chart to get a series of numbers (At Least 3) and by&#xa;pressing 0 calculate the average of those numbers, then print the maximum, the minimum and the average number." style="text;strokeColor=none;fillColor=none;spacing=1;spacingTop=0;overflow=hidden;rounded=0;align=left;whiteSpace=wrap;fontColor=#000000;verticalAlign=middle;horizontal=1;" vertex="1" parent="1">
          <mxGeometry x="20" y="80" width="210" height="150" as="geometry" />
        </mxCell>
        <mxCell id="l56wpMznvlge_y_zsVtQ-9" style="edgeStyle=orthogonalEdgeStyle;rounded=0;orthogonalLoop=1;jettySize=auto;html=1;entryX=0.5;entryY=0;entryDx=0;entryDy=0;fontSize=11;fontColor=#000000;" edge="1" parent="1" source="l56wpMznvlge_y_zsVtQ-3" target="l56wpMznvlge_y_zsVtQ-6">
          <mxGeometry relative="1" as="geometry" />
        </mxCell>
        <mxCell id="l56wpMznvlge_y_zsVtQ-3" value="Start" style="ellipse;whiteSpace=wrap;html=1;aspect=fixed;fontColor=#000000;fontSize=11;" vertex="1" parent="1">
          <mxGeometry x="400" y="115" width="80" height="80" as="geometry" />
        </mxCell>
        <mxCell id="l56wpMznvlge_y_zsVtQ-11" style="edgeStyle=orthogonalEdgeStyle;rounded=0;orthogonalLoop=1;jettySize=auto;html=1;entryX=0.5;entryY=0;entryDx=0;entryDy=0;fontSize=11;fontColor=#000000;" edge="1" parent="1" source="l56wpMznvlge_y_zsVtQ-6" target="l56wpMznvlge_y_zsVtQ-10">
          <mxGeometry relative="1" as="geometry" />
        </mxCell>
        <mxCell id="l56wpMznvlge_y_zsVtQ-6" value="Input Num1 = 8, Num2 = 3, &lt;br&gt;Num3 = 1&lt;br&gt;Define Variable Min, Max, Average&amp;nbsp; &amp;nbsp; &amp;nbsp;" style="shape=parallelogram;perimeter=parallelogramPerimeter;whiteSpace=wrap;html=1;fontSize=11;fontColor=#000000;" vertex="1" parent="1">
          <mxGeometry x="325" y="230" width="230" height="70" as="geometry" />
        </mxCell>
        <mxCell id="l56wpMznvlge_y_zsVtQ-10" value="Press 0:&lt;br&gt;Average = (Num1+Num2+Num3)/3" style="rounded=0;whiteSpace=wrap;html=1;fontSize=11;fontColor=#000000;" vertex="1" parent="1">
          <mxGeometry x="360" y="340" width="160" height="70" as="geometry" />
        </mxCell>
        <mxCell id="l56wpMznvlge_y_zsVtQ-14" value="No" style="edgeStyle=orthogonalEdgeStyle;rounded=0;orthogonalLoop=1;jettySize=auto;html=1;fontSize=11;fontColor=#000000;" edge="1" parent="1" source="l56wpMznvlge_y_zsVtQ-12" target="l56wpMznvlge_y_zsVtQ-13">
          <mxGeometry relative="1" as="geometry" />
        </mxCell>
        <mxCell id="l56wpMznvlge_y_zsVtQ-33" value="" style="edgeStyle=orthogonalEdgeStyle;rounded=0;orthogonalLoop=1;jettySize=auto;html=1;fontSize=11;fontColor=#000000;" edge="1" parent="1" source="l56wpMznvlge_y_zsVtQ-12" target="l56wpMznvlge_y_zsVtQ-10">
          <mxGeometry relative="1" as="geometry" />
        </mxCell>
        <mxCell id="l56wpMznvlge_y_zsVtQ-35" value="Yes" style="edgeStyle=orthogonalEdgeStyle;rounded=0;orthogonalLoop=1;jettySize=auto;html=1;fontSize=11;fontColor=#000000;" edge="1" parent="1" source="l56wpMznvlge_y_zsVtQ-12">
          <mxGeometry relative="1" as="geometry">
            <mxPoint x="600" y="470" as="targetPoint" />
          </mxGeometry>
        </mxCell>
        <mxCell id="l56wpMznvlge_y_zsVtQ-12" value="&lt;p class=&quot;MsoNormalCxSpFirst&quot; style=&quot;margin-left: 18.0pt ; text-indent: -18.0pt ; line-height: 115%&quot;&gt;If num1 &amp;lt; num2 &amp;lt;&lt;br&gt;num3&amp;nbsp;&lt;/p&gt;" style="rhombus;whiteSpace=wrap;html=1;fontSize=11;fontColor=#000000;" vertex="1" parent="1">
          <mxGeometry x="360" y="430" width="160" height="80" as="geometry" />
        </mxCell>
        <mxCell id="l56wpMznvlge_y_zsVtQ-16" value="No" style="edgeStyle=orthogonalEdgeStyle;rounded=0;orthogonalLoop=1;jettySize=auto;html=1;fontSize=11;fontColor=#000000;" edge="1" parent="1" source="l56wpMznvlge_y_zsVtQ-13" target="l56wpMznvlge_y_zsVtQ-15">
          <mxGeometry relative="1" as="geometry" />
        </mxCell>
        <mxCell id="l56wpMznvlge_y_zsVtQ-39" value="Yes" style="edgeStyle=orthogonalEdgeStyle;rounded=0;orthogonalLoop=1;jettySize=auto;html=1;fontSize=11;fontColor=#000000;" edge="1" parent="1" source="l56wpMznvlge_y_zsVtQ-13">
          <mxGeometry relative="1" as="geometry">
            <mxPoint x="600" y="580" as="targetPoint" />
          </mxGeometry>
        </mxCell>
        <mxCell id="l56wpMznvlge_y_zsVtQ-13" value="&lt;p class=&quot;MsoNormalCxSpFirst&quot; style=&quot;margin-left: 18.0pt ; text-indent: -18.0pt ; line-height: 115%&quot;&gt;If num1 &amp;lt; num3 &amp;lt;&lt;br&gt;num2&amp;nbsp;&lt;/p&gt;" style="rhombus;whiteSpace=wrap;html=1;fontSize=11;fontColor=#000000;" vertex="1" parent="1">
          <mxGeometry x="360" y="540" width="160" height="80" as="geometry" />
        </mxCell>
        <mxCell id="l56wpMznvlge_y_zsVtQ-18" value="No" style="edgeStyle=orthogonalEdgeStyle;rounded=0;orthogonalLoop=1;jettySize=auto;html=1;fontSize=11;fontColor=#000000;" edge="1" parent="1" source="l56wpMznvlge_y_zsVtQ-15" target="l56wpMznvlge_y_zsVtQ-17">
          <mxGeometry relative="1" as="geometry" />
        </mxCell>
        <mxCell id="l56wpMznvlge_y_zsVtQ-50" value="Yes" style="edgeStyle=orthogonalEdgeStyle;rounded=0;orthogonalLoop=1;jettySize=auto;html=1;fontSize=11;fontColor=#000000;" edge="1" parent="1" source="l56wpMznvlge_y_zsVtQ-15" target="l56wpMznvlge_y_zsVtQ-41">
          <mxGeometry relative="1" as="geometry" />
        </mxCell>
        <mxCell id="l56wpMznvlge_y_zsVtQ-15" value="&lt;p class=&quot;MsoNormalCxSpFirst&quot; style=&quot;margin-left: 18.0pt ; text-indent: -18.0pt ; line-height: 115%&quot;&gt;If num2 &amp;lt; num1 &amp;lt;&lt;br&gt;num3&amp;nbsp;&lt;/p&gt;" style="rhombus;whiteSpace=wrap;html=1;fontSize=11;fontColor=#000000;" vertex="1" parent="1">
          <mxGeometry x="360" y="650" width="160" height="80" as="geometry" />
        </mxCell>
        <mxCell id="l56wpMznvlge_y_zsVtQ-20" value="No" style="edgeStyle=orthogonalEdgeStyle;rounded=0;orthogonalLoop=1;jettySize=auto;html=1;fontSize=11;fontColor=#000000;" edge="1" parent="1" source="l56wpMznvlge_y_zsVtQ-17" target="l56wpMznvlge_y_zsVtQ-19">
          <mxGeometry relative="1" as="geometry" />
        </mxCell>
        <mxCell id="l56wpMznvlge_y_zsVtQ-48" value="Yes" style="edgeStyle=orthogonalEdgeStyle;rounded=0;orthogonalLoop=1;jettySize=auto;html=1;fontSize=11;fontColor=#000000;" edge="1" parent="1" source="l56wpMznvlge_y_zsVtQ-17" target="l56wpMznvlge_y_zsVtQ-42">
          <mxGeometry relative="1" as="geometry" />
        </mxCell>
        <mxCell id="l56wpMznvlge_y_zsVtQ-17" value="&lt;p class=&quot;MsoNormalCxSpFirst&quot; style=&quot;margin-left: 18.0pt ; text-indent: -18.0pt ; line-height: 115%&quot;&gt;If num2 &amp;lt; num3 &amp;lt;&lt;br&gt;num1&amp;nbsp;&lt;/p&gt;" style="rhombus;whiteSpace=wrap;html=1;fontSize=11;fontColor=#000000;" vertex="1" parent="1">
          <mxGeometry x="360" y="770" width="160" height="80" as="geometry" />
        </mxCell>
        <mxCell id="l56wpMznvlge_y_zsVtQ-22" value="No" style="edgeStyle=orthogonalEdgeStyle;rounded=0;orthogonalLoop=1;jettySize=auto;html=1;fontSize=11;fontColor=#000000;" edge="1" parent="1" source="l56wpMznvlge_y_zsVtQ-19" target="l56wpMznvlge_y_zsVtQ-21">
          <mxGeometry relative="1" as="geometry" />
        </mxCell>
        <mxCell id="l56wpMznvlge_y_zsVtQ-47" value="Yes" style="edgeStyle=orthogonalEdgeStyle;rounded=0;orthogonalLoop=1;jettySize=auto;html=1;fontSize=11;fontColor=#000000;" edge="1" parent="1" source="l56wpMznvlge_y_zsVtQ-19" target="l56wpMznvlge_y_zsVtQ-44">
          <mxGeometry relative="1" as="geometry" />
        </mxCell>
        <mxCell id="l56wpMznvlge_y_zsVtQ-19" value="&lt;p class=&quot;MsoNormalCxSpFirst&quot; style=&quot;margin-left: 18.0pt ; text-indent: -18.0pt ; line-height: 115%&quot;&gt;If num3 &amp;lt; num1 &amp;lt;&lt;br&gt;num2&lt;/p&gt;" style="rhombus;whiteSpace=wrap;html=1;fontSize=11;fontColor=#000000;" vertex="1" parent="1">
          <mxGeometry x="360" y="890" width="160" height="80" as="geometry" />
        </mxCell>
        <mxCell id="l56wpMznvlge_y_zsVtQ-32" value="No" style="edgeStyle=orthogonalEdgeStyle;rounded=0;orthogonalLoop=1;jettySize=auto;html=1;fontSize=11;fontColor=#000000;" edge="1" parent="1" source="l56wpMznvlge_y_zsVtQ-21" target="l56wpMznvlge_y_zsVtQ-26">
          <mxGeometry relative="1" as="geometry" />
        </mxCell>
        <mxCell id="l56wpMznvlge_y_zsVtQ-46" value="Yes" style="edgeStyle=orthogonalEdgeStyle;rounded=0;orthogonalLoop=1;jettySize=auto;html=1;fontSize=11;fontColor=#000000;" edge="1" parent="1" source="l56wpMznvlge_y_zsVtQ-21" target="l56wpMznvlge_y_zsVtQ-45">
          <mxGeometry relative="1" as="geometry" />
        </mxCell>
        <mxCell id="l56wpMznvlge_y_zsVtQ-21" value="&lt;p class=&quot;MsoNormalCxSpFirst&quot; style=&quot;margin-left: 18.0pt ; text-indent: -18.0pt ; line-height: 115%&quot;&gt;If num3&amp;lt;num2&amp;lt;num1&lt;/p&gt;" style="rhombus;whiteSpace=wrap;html=1;fontSize=11;fontColor=#000000;" vertex="1" parent="1">
          <mxGeometry x="360" y="1000" width="160" height="80" as="geometry" />
        </mxCell>
        <mxCell id="l56wpMznvlge_y_zsVtQ-30" value="" style="edgeStyle=orthogonalEdgeStyle;rounded=0;orthogonalLoop=1;jettySize=auto;html=1;fontSize=11;fontColor=#000000;" edge="1" parent="1" target="l56wpMznvlge_y_zsVtQ-31">
          <mxGeometry relative="1" as="geometry">
            <mxPoint x="446.03999999999996" y="1193" as="sourcePoint" />
            <mxPoint x="446" y="1240" as="targetPoint" />
            <Array as="points">
              <mxPoint x="446" y="1183" />
              <mxPoint x="446" y="1183" />
            </Array>
          </mxGeometry>
        </mxCell>
        <mxCell id="l56wpMznvlge_y_zsVtQ-26" value="Print Average, Min and Max" style="shape=document;whiteSpace=wrap;html=1;boundedLbl=1;fontSize=11;fontColor=#000000;" vertex="1" parent="1">
          <mxGeometry x="380" y="1120" width="120" height="80" as="geometry" />
        </mxCell>
        <mxCell id="l56wpMznvlge_y_zsVtQ-31" value="End." style="ellipse;whiteSpace=wrap;html=1;aspect=fixed;" vertex="1" parent="1">
          <mxGeometry x="403" y="1220" width="80" height="80" as="geometry" />
        </mxCell>
        <mxCell id="l56wpMznvlge_y_zsVtQ-37" style="edgeStyle=orthogonalEdgeStyle;rounded=0;orthogonalLoop=1;jettySize=auto;html=1;entryX=1;entryY=0.5;entryDx=0;entryDy=0;fontSize=11;fontColor=#000000;" edge="1" parent="1" source="l56wpMznvlge_y_zsVtQ-36" target="l56wpMznvlge_y_zsVtQ-26">
          <mxGeometry relative="1" as="geometry">
            <Array as="points">
              <mxPoint x="760" y="470" />
              <mxPoint x="760" y="1160" />
            </Array>
          </mxGeometry>
        </mxCell>
        <mxCell id="l56wpMznvlge_y_zsVtQ-36" value="&lt;span style=&quot;font-size: 11.0pt ; line-height: 107% ; font-family: &amp;#34;calibri&amp;#34; , &amp;#34;sans-serif&amp;#34;&quot;&gt;Min = num1 and Max = num3&lt;/span&gt;" style="rounded=0;whiteSpace=wrap;html=1;fontSize=11;fontColor=#000000;" vertex="1" parent="1">
          <mxGeometry x="600" y="440" width="120" height="60" as="geometry" />
        </mxCell>
        <mxCell id="l56wpMznvlge_y_zsVtQ-53" style="edgeStyle=orthogonalEdgeStyle;rounded=0;orthogonalLoop=1;jettySize=auto;html=1;fontSize=11;fontColor=#000000;" edge="1" parent="1" source="l56wpMznvlge_y_zsVtQ-40">
          <mxGeometry relative="1" as="geometry">
            <mxPoint x="760" y="580" as="targetPoint" />
          </mxGeometry>
        </mxCell>
        <mxCell id="l56wpMznvlge_y_zsVtQ-40" value="&lt;span style=&quot;font-size: 11.0pt ; line-height: 107% ; font-family: &amp;#34;calibri&amp;#34; , &amp;#34;sans-serif&amp;#34;&quot;&gt;Min = num1 and Max = num2&lt;/span&gt;" style="rounded=0;whiteSpace=wrap;html=1;fontSize=11;fontColor=#000000;" vertex="1" parent="1">
          <mxGeometry x="600" y="550" width="120" height="60" as="geometry" />
        </mxCell>
        <mxCell id="l56wpMznvlge_y_zsVtQ-54" style="edgeStyle=orthogonalEdgeStyle;rounded=0;orthogonalLoop=1;jettySize=auto;html=1;fontSize=11;fontColor=#000000;" edge="1" parent="1" source="l56wpMznvlge_y_zsVtQ-41">
          <mxGeometry relative="1" as="geometry">
            <mxPoint x="760" y="690" as="targetPoint" />
          </mxGeometry>
        </mxCell>
        <mxCell id="l56wpMznvlge_y_zsVtQ-41" value="&lt;span style=&quot;font-size: 11.0pt ; line-height: 107% ; font-family: &amp;#34;calibri&amp;#34; , &amp;#34;sans-serif&amp;#34;&quot;&gt;Min = num2 and Max = num3&lt;/span&gt;" style="rounded=0;whiteSpace=wrap;html=1;fontSize=11;fontColor=#000000;" vertex="1" parent="1">
          <mxGeometry x="600" y="660" width="120" height="60" as="geometry" />
        </mxCell>
        <mxCell id="l56wpMznvlge_y_zsVtQ-55" style="edgeStyle=orthogonalEdgeStyle;rounded=0;orthogonalLoop=1;jettySize=auto;html=1;fontSize=11;fontColor=#000000;" edge="1" parent="1" source="l56wpMznvlge_y_zsVtQ-42">
          <mxGeometry relative="1" as="geometry">
            <mxPoint x="760" y="810" as="targetPoint" />
          </mxGeometry>
        </mxCell>
        <mxCell id="l56wpMznvlge_y_zsVtQ-42" value="&lt;span style=&quot;font-size: 11.0pt ; line-height: 107% ; font-family: &amp;#34;calibri&amp;#34; , &amp;#34;sans-serif&amp;#34;&quot;&gt;Min = num2 and Max = num1&lt;/span&gt;" style="rounded=0;whiteSpace=wrap;html=1;fontSize=11;fontColor=#000000;" vertex="1" parent="1">
          <mxGeometry x="600" y="780" width="120" height="60" as="geometry" />
        </mxCell>
        <mxCell id="l56wpMznvlge_y_zsVtQ-56" style="edgeStyle=orthogonalEdgeStyle;rounded=0;orthogonalLoop=1;jettySize=auto;html=1;fontSize=11;fontColor=#000000;" edge="1" parent="1" source="l56wpMznvlge_y_zsVtQ-44">
          <mxGeometry relative="1" as="geometry">
            <mxPoint x="760" y="930" as="targetPoint" />
          </mxGeometry>
        </mxCell>
        <mxCell id="l56wpMznvlge_y_zsVtQ-44" value="&lt;span style=&quot;font-size: 11.0pt ; line-height: 107% ; font-family: &amp;#34;calibri&amp;#34; , &amp;#34;sans-serif&amp;#34;&quot;&gt;Min = num3 and Max = num2&lt;/span&gt;" style="rounded=0;whiteSpace=wrap;html=1;fontSize=11;fontColor=#000000;" vertex="1" parent="1">
          <mxGeometry x="600" y="900" width="120" height="60" as="geometry" />
        </mxCell>
        <mxCell id="l56wpMznvlge_y_zsVtQ-57" style="edgeStyle=orthogonalEdgeStyle;rounded=0;orthogonalLoop=1;jettySize=auto;html=1;fontSize=11;fontColor=#000000;" edge="1" parent="1" source="l56wpMznvlge_y_zsVtQ-45">
          <mxGeometry relative="1" as="geometry">
            <mxPoint x="760" y="1040" as="targetPoint" />
          </mxGeometry>
        </mxCell>
        <mxCell id="l56wpMznvlge_y_zsVtQ-45" value="&lt;span style=&quot;font-size: 11.0pt ; line-height: 107% ; font-family: &amp;#34;calibri&amp;#34; , &amp;#34;sans-serif&amp;#34;&quot;&gt;Min = num3 and Max = num1&lt;/span&gt;" style="rounded=0;whiteSpace=wrap;html=1;fontSize=11;fontColor=#000000;" vertex="1" parent="1">
          <mxGeometry x="600" y="1010" width="120" height="60" as="geometry" />
        </mxCell>
      </root>
    </mxGraphModel>
  </diagram>
</mxfile>
